<svg
  width="480"
  height="448"
  viewBox="-10 -20 510 480"
  fill="none"
  xmlns="http://www.w3.org/2000/svg"
>
  <path
    d="M50 1C25.1472 1 5 21.1472 5 46C5 70.8528 25.1472 91 50 91H295C319.853 91 340 70.8528 340 46C340 21.1472 319.853 1 295 1H50ZM5 221C5 196.147 25.1472 176 50 176H430C454.853 176 475 196.147 475 221C475 245.853 454.853 266 430 266H50C25.1472 266 5 245.853 5 221ZM5 394C5 369.147 25.1472 349 50 349H230C254.853 349 275 369.147 275 394C275 418.853 254.853 439 230 439H50C25.1472 439 5 418.853 5 394Z"
    stroke="currentColor"
    stroke-width="30"
    fill="none"
  />
</svg>
